/* XPM */
static char * progicon[] = {
"32 32 2 1",
" 	c None",
".	c #000000",
"                                ",
"                                ",
"   ..........         ..        ",
"   ..........         ..        ",
"   ..........         ..        ",
"   ...       ...      ..        ",
"   ...       ...  ..........    ",
"   ...       ...  ..........    ",
"   ...       ...      ..        ",
"   ..........         ..        ",
"   ..........         ..        ",
"   ..........         ..        ",
"   ...       ...                ",
"   ...       ...                ",
"   ...       ...                ",
"   ...       ...                ",
"   ..........                   ",
"   ..........                   ",
"   ..........                   ",
"                                ",
"                                ",
"                                ",
"     .....  ....   ....  ....   ",
"       .    .   .  .     .      ",
"       .    .   .  .     .      ",
"       .    ....   ....  ....   ",
"       .    . .    .     .      ",
"       .    .  .   .     .      ",
"       .    .   .  ....  ....   ",
"                                ",
"                                ",
"                                "};
